<?xml version="1.0" encoding="utf-8"?>
<!-- Generator: Adobe Illustrator 23.0.3, SVG Export Plug-In . SVG Version: 6.00 Build 0)  -->
<svg version="1.1" id="Слой_1" xmlns="http://www.w3.org/2000/svg" xmlns:xlink="http://www.w3.org/1999/xlink" x="0px" y="0px"
	 viewBox="0 0 100 37.25" style="enable-background:new 0 0 100 37.25;" xml:space="preserve">
<style type="text/css">
	.st0{fill:#FF6600;}
	.st1{fill:#069E2D;}
</style>
<g>
	<path class="st0" d="M46.62,7.33c0,0.2-0.15,0.34-0.34,0.34h-2.05v4.82c0,0.19-0.15,0.34-0.34,0.34h-1.46
		c-0.2,0-0.34-0.15-0.34-0.34V7.67h-2.05c-0.19,0-0.34-0.15-0.34-0.34V6.36c0-0.19,0.15-0.34,0.34-0.34h6.23
		c0.19,0,0.34,0.15,0.34,0.34V7.33z"/>
	<path class="st0" d="M54.13,7.33c0,0.2-0.15,0.34-0.34,0.34h-4.14v0.88h3.07c0.19,0,0.34,0.15,0.34,0.34v0.97
		c0,0.19-0.15,0.34-0.34,0.34h-3.07v0.97h4.14c0.19,0,0.34,0.15,0.34,0.34v0.97c0,0.19-0.15,0.34-0.34,0.34h-5.94
		c-0.19,0-0.34-0.15-0.34-0.34V6.36c0-0.19,0.15-0.34,0.34-0.34h5.94c0.19,0,0.34,0.15,0.34,0.34V7.33z"/>
	<path class="st0" d="M62.27,12.5c0,0.19-0.15,0.34-0.34,0.34h-1.46c-0.19,0-0.34-0.15-0.34-0.34V7.67h-1.17
		c-0.63,0-0.98,0.34-1.12,0.88l-0.97,3.95c-0.05,0.19-0.19,0.34-0.38,0.34h-1.47c-0.24,0-0.39-0.16-0.34-0.34l0.97-3.95
		c0.39-1.56,1.36-2.53,3.31-2.53h2.97c0.2,0,0.34,0.15,0.34,0.34V12.5z"/>
	<path class="st0" d="M70.36,7.33c0,0.2-0.15,0.34-0.34,0.34h-4.14v0.88h3.07c0.19,0,0.34,0.15,0.34,0.34v0.97
		c0,0.19-0.15,0.34-0.34,0.34h-3.07v0.97h4.14c0.19,0,0.34,0.15,0.34,0.34v0.97c0,0.19-0.15,0.34-0.34,0.34h-5.94
		c-0.19,0-0.34-0.15-0.34-0.34V6.36c0-0.19,0.15-0.34,0.34-0.34h5.94c0.19,0,0.34,0.15,0.34,0.34V7.33z"/>
	<path class="st0" d="M75.52,12.84c-0.29,0-0.48-0.19-0.54-0.34l-1.31-3.21h-0.1v3.21c0,0.19-0.15,0.34-0.34,0.34h-1.46
		c-0.19,0-0.34-0.15-0.34-0.34V6.36c0-0.19,0.15-0.34,0.34-0.34h2.05c0.29,0,0.48,0.19,0.54,0.34l1.7,4.14h0.1l1.7-4.14
		c0.06-0.15,0.24-0.34,0.54-0.34h2.05c0.19,0,0.34,0.15,0.34,0.34v6.14c0,0.19-0.15,0.34-0.34,0.34h-1.46
		c-0.19,0-0.34-0.15-0.34-0.34V9.28h-0.1l-1.31,3.21c-0.06,0.15-0.24,0.34-0.54,0.34H75.52z"/>
	<path class="st0" d="M88.87,7.33c0,0.2-0.15,0.34-0.34,0.34h-4.14v0.88h3.07c0.19,0,0.34,0.15,0.34,0.34v0.97
		c0,0.19-0.15,0.34-0.34,0.34h-3.07v0.97h4.14c0.19,0,0.34,0.15,0.34,0.34v0.97c0,0.19-0.15,0.34-0.34,0.34h-5.94
		c-0.19,0-0.34-0.15-0.34-0.34V6.36c0-0.19,0.15-0.34,0.34-0.34h5.94c0.19,0,0.34,0.15,0.34,0.34V7.33z"/>
	<path class="st0" d="M97.83,11.18c0.19,0,0.34,0.15,0.34,0.34v0.97c0,0.19-0.15,0.34-0.34,0.34h-8.28c-0.19,0-0.34-0.15-0.34-0.34
		v-0.97c0-0.19,0.15-0.34,0.34-0.34h0.54l0.63-2.63c0.38-1.56,1.36-2.53,3.31-2.53h2.83c0.19,0,0.34,0.15,0.34,0.34v4.82H97.83z
		 M95.05,7.67h-1.02c-0.63,0-0.99,0.34-1.12,0.88l-0.63,2.63h2.78V7.67z"/>
	<path class="st0" d="M47.4,24.19c0,0.19-0.15,0.34-0.34,0.34H45.6c-0.2,0-0.34-0.15-0.34-0.34v-4.82h-2.82v4.82
		c0,0.19-0.15,0.34-0.34,0.34h-1.46c-0.19,0-0.34-0.15-0.34-0.34v-6.14c0-0.19,0.15-0.34,0.34-0.34h6.43c0.19,0,0.34,0.15,0.34,0.34
		V24.19z"/>
	<path class="st0" d="M56.56,21.12c0,2.19-1.41,3.6-3.99,3.6c-2.58,0-3.99-1.41-3.99-3.6c0-2.19,1.41-3.6,3.99-3.6
		C55.15,17.51,56.56,18.93,56.56,21.12z M54.32,21.12c0-1.32-0.68-2-1.75-2c-1.07,0-1.75,0.68-1.75,2c0,1.31,0.68,2,1.75,2
		C53.64,23.11,54.32,22.43,54.32,21.12z"/>
	<path class="st0" d="M64.8,24.19c0,0.19-0.15,0.34-0.34,0.34H63c-0.19,0-0.34-0.15-0.34-0.34v-4.82h-1.17
		c-0.63,0-0.98,0.34-1.12,0.88l-0.97,3.95c-0.05,0.19-0.19,0.34-0.38,0.34h-1.47c-0.24,0-0.39-0.16-0.34-0.34l0.97-3.95
		c0.39-1.56,1.36-2.53,3.31-2.53h2.97c0.19,0,0.34,0.15,0.34,0.34V24.19z"/>
	<path class="st0" d="M71.23,20.63l-2.44,3.56c-0.1,0.15-0.29,0.34-0.54,0.34h-1.66c-0.19,0-0.34-0.15-0.34-0.34v-6.14
		c0-0.19,0.15-0.34,0.34-0.34h1.46c0.19,0,0.34,0.15,0.34,0.34v3.56h0.1l2.44-3.56c0.1-0.15,0.29-0.34,0.54-0.34h1.66
		c0.19,0,0.34,0.15,0.34,0.34v6.14c0,0.19-0.15,0.34-0.34,0.34h-1.46c-0.19,0-0.34-0.15-0.34-0.34v-3.56H71.23z"/>
	<path class="st0" d="M82.14,19.85c0,0.24-0.15,0.39-0.39,0.39h-1.22c-0.29,0-0.44-0.15-0.58-0.39c-0.24-0.39-0.58-0.73-1.32-0.73
		c-1.07,0-1.75,0.68-1.75,2c0,1.31,0.68,2,1.75,2c0.78,0,1.17-0.39,1.41-0.83c0.14-0.24,0.29-0.39,0.58-0.39h1.22
		c0.24,0,0.39,0.15,0.39,0.39c0,1.17-1.27,2.44-3.6,2.44c-2.58,0-3.99-1.41-3.99-3.6c0-2.19,1.41-3.6,3.99-3.6
		C80.93,17.51,82.14,18.73,82.14,19.85z"/>
</g>
<g>
	<path class="st1" d="M40.08,32.1c-0.05,0-0.09-0.02-0.13-0.05c-0.03-0.03-0.05-0.08-0.05-0.13V29.6c0-0.05,0.02-0.1,0.05-0.13
		c0.03-0.03,0.08-0.05,0.13-0.05c0.05,0,0.1,0.02,0.13,0.05c0.03,0.03,0.05,0.08,0.05,0.13v0.99h0.56v0.32h-0.56v1.02
		c0,0.05-0.02,0.09-0.05,0.13C40.18,32.09,40.14,32.1,40.08,32.1z M41.88,32.06c-0.03,0.03-0.08,0.05-0.13,0.05
		c-0.05,0-0.1-0.02-0.13-0.06l-1.13-1.31l1.05-1.26c0.03-0.04,0.07-0.06,0.13-0.06c0.05,0,0.09,0.02,0.13,0.05
		c0.03,0.04,0.05,0.07,0.05,0.12c0,0.04-0.02,0.08-0.05,0.11l-0.87,1.01l0.96,1.11c0.03,0.04,0.05,0.08,0.05,0.12
		C41.94,31.98,41.92,32.02,41.88,32.06z"/>
	<path class="st1" d="M42.39,32.1c-0.06,0-0.11-0.03-0.15-0.08c-0.03-0.06-0.04-0.11-0.01-0.18l0.97-2.31
		c0.03-0.08,0.09-0.12,0.17-0.12c0.08,0,0.14,0.04,0.17,0.12l0.97,2.31c0.03,0.06,0.02,0.12-0.01,0.17
		c-0.03,0.05-0.08,0.08-0.15,0.08c-0.03,0-0.07-0.01-0.1-0.03s-0.05-0.05-0.07-0.08l-0.86-2.12h0.11l-0.88,2.12
		c-0.02,0.04-0.04,0.06-0.07,0.08C42.46,32.09,42.43,32.1,42.39,32.1z"/>
	<path class="st1" d="M45.19,32.1c-0.05,0-0.09-0.02-0.13-0.05c-0.03-0.03-0.05-0.08-0.05-0.13V29.6c0-0.05,0.02-0.1,0.05-0.13
		c0.03-0.03,0.08-0.05,0.13-0.05c0.05,0,0.1,0.02,0.13,0.05c0.03,0.03,0.05,0.08,0.05,0.13v0.99h0.77v0.32h-0.77v1.02
		c0,0.05-0.02,0.09-0.05,0.13C45.29,32.09,45.25,32.1,45.19,32.1z M47.22,32.14c-0.19,0-0.37-0.03-0.53-0.1
		c-0.16-0.07-0.29-0.16-0.41-0.29c-0.11-0.12-0.2-0.27-0.27-0.44s-0.09-0.35-0.09-0.56c0-0.2,0.03-0.39,0.09-0.55
		s0.15-0.31,0.27-0.44c0.11-0.12,0.25-0.22,0.41-0.29c0.16-0.07,0.33-0.1,0.53-0.1c0.2,0,0.38,0.03,0.54,0.1
		c0.16,0.07,0.3,0.16,0.42,0.29c0.12,0.12,0.21,0.27,0.27,0.44s0.1,0.35,0.1,0.55c0,0.2-0.03,0.39-0.1,0.56s-0.16,0.31-0.27,0.44
		c-0.12,0.12-0.26,0.22-0.42,0.29C47.6,32.1,47.42,32.14,47.22,32.14z M47.22,31.81c0.14,0,0.28-0.03,0.4-0.08
		c0.12-0.05,0.22-0.13,0.31-0.22s0.16-0.21,0.2-0.34c0.05-0.13,0.07-0.27,0.07-0.42c0-0.15-0.02-0.29-0.07-0.42
		c-0.05-0.13-0.12-0.24-0.2-0.34c-0.09-0.1-0.19-0.17-0.31-0.22c-0.12-0.05-0.25-0.08-0.4-0.08c-0.14,0-0.27,0.03-0.38,0.08
		c-0.12,0.05-0.22,0.13-0.3,0.22c-0.09,0.1-0.15,0.21-0.2,0.34c-0.05,0.13-0.07,0.27-0.07,0.42c0,0.15,0.02,0.29,0.07,0.42
		c0.05,0.13,0.11,0.24,0.2,0.34c0.08,0.1,0.19,0.17,0.3,0.22C46.95,31.79,47.08,31.81,47.22,31.81z"/>
	<path class="st1" d="M50.08,31.23c-0.22,0-0.41-0.05-0.56-0.14c-0.15-0.09-0.27-0.22-0.34-0.4c-0.08-0.17-0.12-0.37-0.12-0.61V29.6
		c0-0.05,0.02-0.1,0.05-0.13c0.03-0.03,0.08-0.05,0.13-0.05c0.05,0,0.1,0.02,0.13,0.05c0.03,0.03,0.05,0.08,0.05,0.13v0.48
		c0,0.17,0.02,0.32,0.06,0.45s0.11,0.22,0.21,0.29c0.1,0.07,0.23,0.1,0.4,0.1c0.14,0,0.27-0.02,0.37-0.05
		c0.11-0.03,0.19-0.08,0.25-0.14c0.06-0.06,0.09-0.13,0.09-0.21h0.17c0,0.14-0.04,0.26-0.12,0.37c-0.08,0.11-0.18,0.19-0.32,0.25
		C50.42,31.2,50.26,31.23,50.08,31.23z M51,32.1c-0.05,0-0.09-0.02-0.13-0.05c-0.03-0.03-0.05-0.08-0.05-0.13V29.6
		c0-0.05,0.02-0.1,0.05-0.13c0.03-0.03,0.08-0.05,0.13-0.05c0.05,0,0.1,0.02,0.13,0.05c0.03,0.03,0.05,0.08,0.05,0.13v2.33
		c0,0.05-0.02,0.09-0.05,0.13C51.1,32.09,51.05,32.1,51,32.1z"/>
	<path class="st1" d="M53.21,32.1c-0.05,0-0.09-0.02-0.13-0.05c-0.03-0.03-0.05-0.08-0.05-0.13V29.6c0-0.05,0.02-0.1,0.05-0.13
		c0.03-0.03,0.08-0.05,0.13-0.05c0.05,0,0.1,0.02,0.13,0.05c0.03,0.03,0.05,0.08,0.05,0.13v0.99h0.56v0.32h-0.56v1.02
		c0,0.05-0.02,0.09-0.05,0.13C53.3,32.09,53.26,32.1,53.21,32.1z M55,32.06c-0.03,0.03-0.08,0.05-0.13,0.05
		c-0.05,0-0.1-0.02-0.13-0.06l-1.13-1.31l1.05-1.26c0.03-0.04,0.07-0.06,0.13-0.06c0.05,0,0.09,0.02,0.13,0.05
		c0.03,0.04,0.05,0.07,0.05,0.12c0,0.04-0.02,0.08-0.05,0.11l-0.87,1.01L55,31.82c0.03,0.04,0.05,0.08,0.05,0.12
		C55.06,31.98,55.04,32.02,55,32.06z"/>
	<path class="st1" d="M56.88,32.1c-0.05,0-0.09-0.02-0.13-0.05c-0.03-0.03-0.05-0.08-0.05-0.13V29.6c0-0.05,0.02-0.1,0.05-0.13
		c0.03-0.03,0.08-0.05,0.13-0.05h0.82c0.16,0,0.29,0.03,0.41,0.09c0.12,0.06,0.21,0.14,0.28,0.25c0.07,0.11,0.1,0.23,0.1,0.37
		c0,0.11-0.03,0.21-0.09,0.3c-0.06,0.09-0.14,0.16-0.25,0.21c0.15,0.04,0.27,0.11,0.36,0.22c0.09,0.11,0.14,0.25,0.14,0.42
		c0,0.16-0.04,0.3-0.11,0.42c-0.07,0.12-0.18,0.22-0.31,0.29c-0.13,0.07-0.29,0.1-0.46,0.1H56.88z M57.06,30.52h0.64
		c0.13,0,0.24-0.03,0.32-0.1c0.08-0.06,0.13-0.16,0.13-0.29c0-0.13-0.04-0.23-0.13-0.29c-0.08-0.06-0.19-0.09-0.32-0.09h-0.64V30.52
		z M57.06,31.77h0.72c0.11,0,0.2-0.02,0.28-0.05c0.08-0.04,0.14-0.09,0.19-0.16c0.05-0.07,0.07-0.16,0.07-0.26
		c0-0.1-0.02-0.18-0.07-0.24c-0.05-0.06-0.11-0.11-0.19-0.15c-0.08-0.03-0.17-0.05-0.28-0.05h-0.72V31.77z"/>
	<path class="st1" d="M59.05,32.1c-0.06,0-0.11-0.03-0.15-0.08c-0.03-0.06-0.04-0.11-0.01-0.18l0.97-2.31
		c0.03-0.08,0.09-0.12,0.17-0.12c0.08,0,0.14,0.04,0.17,0.12l0.97,2.31c0.03,0.06,0.02,0.12-0.01,0.17
		c-0.03,0.05-0.08,0.08-0.15,0.08c-0.03,0-0.07-0.01-0.1-0.03s-0.05-0.05-0.07-0.08l-0.85-2.12h0.1l-0.87,2.12
		c-0.02,0.04-0.04,0.06-0.07,0.08C59.11,32.09,59.08,32.1,59.05,32.1z M59.23,31.51l0.14-0.3h1.35l0.14,0.3H59.23z"/>
	<path class="st1" d="M61.83,32.1c-0.05,0-0.09-0.02-0.13-0.05c-0.03-0.03-0.05-0.08-0.05-0.13V29.6c0-0.05,0.02-0.1,0.05-0.13
		c0.03-0.03,0.08-0.05,0.13-0.05c0.05,0,0.1,0.02,0.13,0.05c0.03,0.03,0.05,0.08,0.05,0.13v2.19h1.03V29.6
		c0-0.05,0.02-0.1,0.05-0.13c0.03-0.03,0.08-0.05,0.13-0.05c0.05,0,0.1,0.02,0.13,0.05c0.03,0.03,0.05,0.08,0.05,0.13v2.19h1.03
		V29.6c0-0.05,0.02-0.1,0.05-0.13c0.03-0.03,0.08-0.05,0.13-0.05c0.05,0,0.1,0.02,0.13,0.05c0.03,0.03,0.05,0.08,0.05,0.13v2.33
		c0,0.05-0.02,0.09-0.05,0.13c-0.03,0.03-0.07,0.05-0.13,0.05H61.83z"/>
	<path class="st1" d="M65.72,32.1c-0.05,0-0.09-0.02-0.13-0.05c-0.03-0.03-0.05-0.08-0.05-0.13V29.6c0-0.05,0.02-0.1,0.05-0.13
		c0.03-0.03,0.08-0.05,0.13-0.05h1.55c0.05,0,0.1,0.02,0.13,0.05c0.03,0.03,0.05,0.07,0.05,0.12c0,0.05-0.02,0.09-0.05,0.12
		c-0.03,0.03-0.07,0.04-0.13,0.04H65.9v0.84h0.99c0.05,0,0.1,0.02,0.13,0.05c0.03,0.03,0.05,0.07,0.05,0.12
		c0,0.05-0.02,0.09-0.05,0.12c-0.03,0.03-0.07,0.05-0.13,0.05H65.9v0.86h1.38c0.05,0,0.1,0.02,0.13,0.04
		c0.03,0.03,0.05,0.07,0.05,0.12c0,0.05-0.02,0.09-0.05,0.12c-0.03,0.03-0.07,0.05-0.13,0.05H65.72z"/>
	<path class="st1" d="M68.21,32.1c-0.05,0-0.09-0.02-0.13-0.05c-0.03-0.03-0.05-0.08-0.05-0.13V29.6c0-0.05,0.02-0.1,0.05-0.13
		c0.03-0.03,0.08-0.05,0.13-0.05c0.07,0,0.12,0.03,0.16,0.1l1.08,2.16h-0.11l1.05-2.16c0.04-0.06,0.09-0.1,0.16-0.1
		c0.05,0,0.09,0.02,0.13,0.05c0.03,0.03,0.05,0.08,0.05,0.13v2.33c0,0.05-0.02,0.09-0.05,0.13c-0.04,0.03-0.08,0.05-0.13,0.05
		c-0.05,0-0.09-0.02-0.13-0.05c-0.03-0.03-0.05-0.08-0.05-0.13v-1.83l0.07-0.02l-0.9,1.84C69.49,31.97,69.44,32,69.37,32
		c-0.08,0-0.13-0.04-0.16-0.11l-0.89-1.78l0.07-0.02v1.83c0,0.05-0.02,0.09-0.05,0.13C68.3,32.09,68.26,32.1,68.21,32.1z"/>
	<path class="st1" d="M72.31,31.56l-1.15-1.88c-0.05-0.09-0.03-0.17,0.07-0.23c0.1-0.05,0.17-0.03,0.23,0.06l1.08,1.87L72.31,31.56z
		 M71.81,32.13c-0.11,0-0.21-0.03-0.3-0.09c-0.04-0.03-0.07-0.06-0.08-0.11c-0.01-0.04,0-0.09,0.02-0.12
		c0.03-0.04,0.06-0.07,0.11-0.07c0.05-0.01,0.09,0,0.14,0.03c0.02,0.01,0.03,0.02,0.05,0.02c0.02,0.01,0.04,0.01,0.05,0.01
		c0.06,0,0.13-0.03,0.19-0.09c0.07-0.06,0.12-0.14,0.17-0.25l0.95-1.94c0.05-0.1,0.12-0.13,0.22-0.09c0.1,0.04,0.12,0.12,0.07,0.22
		l-0.95,1.94c-0.08,0.17-0.18,0.3-0.29,0.39C72.06,32.09,71.94,32.13,71.81,32.13z"/>
	<path class="st1" d="M75.84,32.14c-0.13,0-0.25-0.02-0.38-0.05c-0.13-0.03-0.24-0.08-0.34-0.14c-0.1-0.06-0.17-0.13-0.21-0.21
		c0-0.04,0-0.09-0.01-0.13c0-0.04,0.02-0.08,0.05-0.1c0.04-0.03,0.08-0.03,0.12-0.02c0.04,0.01,0.07,0.04,0.1,0.07
		c0.06,0.07,0.15,0.14,0.27,0.19c0.12,0.05,0.25,0.08,0.39,0.08c0.12,0,0.23-0.02,0.32-0.06c0.09-0.04,0.17-0.11,0.22-0.18
		c0.05-0.08,0.08-0.17,0.08-0.27c0-0.14-0.05-0.25-0.14-0.34c-0.1-0.08-0.22-0.13-0.37-0.13h-0.23c-0.04,0-0.08-0.01-0.11-0.04
		c-0.03-0.03-0.04-0.07-0.04-0.11c0-0.05,0.01-0.09,0.04-0.12c0.03-0.03,0.06-0.04,0.11-0.04h0.18c0.12,0,0.22-0.04,0.31-0.12
		c0.08-0.08,0.12-0.18,0.12-0.31c0-0.14-0.05-0.24-0.14-0.3c-0.1-0.06-0.22-0.1-0.37-0.1c-0.11,0-0.22,0.02-0.31,0.06
		s-0.18,0.11-0.26,0.19c-0.04,0.05-0.08,0.08-0.12,0.1c-0.04,0.02-0.08,0.01-0.13-0.02c-0.03-0.02-0.05-0.06-0.07-0.1
		c-0.01-0.04,0-0.08,0.02-0.12c0.09-0.12,0.2-0.23,0.35-0.31c0.14-0.08,0.32-0.12,0.52-0.12c0.17,0,0.32,0.03,0.45,0.09
		c0.13,0.06,0.23,0.14,0.3,0.24s0.11,0.22,0.11,0.35c0,0.1-0.02,0.2-0.07,0.28c-0.04,0.08-0.1,0.15-0.17,0.21
		c-0.07,0.06-0.14,0.1-0.21,0.13c-0.07,0.03-0.14,0.04-0.19,0.04v-0.11c0.06,0,0.14,0.01,0.22,0.04c0.09,0.02,0.17,0.06,0.26,0.12
		c0.09,0.05,0.16,0.13,0.21,0.22c0.06,0.09,0.08,0.21,0.08,0.34c0,0.15-0.04,0.29-0.13,0.41c-0.08,0.12-0.2,0.22-0.34,0.29
		C76.19,32.1,76.02,32.14,75.84,32.14z"/>
	<path class="st1" d="M77.33,32.72c-0.05,0-0.09-0.02-0.13-0.05c-0.03-0.03-0.05-0.08-0.05-0.13v-0.57c0-0.05,0.02-0.1,0.05-0.13
		s0.08-0.05,0.13-0.05h2.42c0.05,0,0.1,0.02,0.13,0.05s0.05,0.08,0.05,0.13v0.57c0,0.05-0.02,0.09-0.05,0.13
		c-0.03,0.03-0.08,0.05-0.13,0.05c-0.05,0-0.09-0.02-0.13-0.05c-0.03-0.03-0.05-0.08-0.05-0.13V32.1h-2.06v0.43
		c0,0.05-0.02,0.09-0.05,0.13C77.42,32.7,77.38,32.72,77.33,32.72z M77.71,31.99l-0.31-0.15l0.97-2.31
		c0.03-0.08,0.09-0.12,0.17-0.12c0.08,0,0.14,0.04,0.17,0.12l0.97,2.31l-0.29,0.14l-0.87-2.12h0.05L77.71,31.99z"/>
	<path class="st1" d="M81.68,32.14c-0.2,0-0.39-0.03-0.55-0.1s-0.31-0.16-0.43-0.29c-0.12-0.12-0.21-0.27-0.28-0.44
		s-0.1-0.35-0.1-0.56c0-0.2,0.03-0.39,0.1-0.55s0.16-0.31,0.28-0.44c0.12-0.12,0.26-0.22,0.43-0.29c0.17-0.07,0.35-0.1,0.55-0.1
		c0.2,0,0.39,0.03,0.55,0.1c0.17,0.07,0.31,0.16,0.43,0.29c0.12,0.12,0.22,0.27,0.28,0.44c0.07,0.17,0.1,0.35,0.1,0.55
		c0,0.2-0.03,0.39-0.1,0.56c-0.07,0.17-0.16,0.31-0.28,0.44c-0.12,0.12-0.27,0.22-0.43,0.29C82.06,32.1,81.88,32.14,81.68,32.14z
		 M81.68,31.81c0.15,0,0.29-0.03,0.41-0.08c0.13-0.05,0.23-0.13,0.33-0.22c0.09-0.1,0.16-0.21,0.21-0.34
		c0.05-0.13,0.07-0.27,0.07-0.42c0-0.15-0.02-0.29-0.07-0.42c-0.05-0.13-0.12-0.24-0.21-0.34c-0.09-0.1-0.2-0.17-0.33-0.22
		c-0.12-0.05-0.26-0.08-0.41-0.08c-0.15,0-0.29,0.03-0.41,0.08c-0.12,0.05-0.23,0.13-0.32,0.22c-0.09,0.1-0.16,0.21-0.21,0.34
		c-0.05,0.13-0.08,0.27-0.08,0.42c0,0.15,0.03,0.29,0.08,0.42c0.05,0.13,0.12,0.24,0.21,0.34c0.09,0.1,0.2,0.17,0.32,0.22
		C81.39,31.79,81.53,31.81,81.68,31.81z"/>
	<path class="st1" d="M83.86,32.1c-0.05,0-0.09-0.02-0.13-0.05c-0.03-0.03-0.05-0.08-0.05-0.13V29.6c0-0.05,0.02-0.1,0.05-0.13
		c0.03-0.03,0.08-0.05,0.13-0.05h0.69c0.17,0,0.32,0.04,0.46,0.11c0.13,0.08,0.24,0.18,0.31,0.31c0.07,0.13,0.11,0.29,0.11,0.46
		c0,0.17-0.04,0.32-0.11,0.45c-0.07,0.13-0.18,0.23-0.31,0.31c-0.13,0.07-0.29,0.11-0.46,0.11h-0.51v0.75
		c0,0.05-0.02,0.09-0.05,0.13C83.95,32.09,83.91,32.1,83.86,32.1z M84.03,30.84h0.51c0.11,0,0.2-0.02,0.28-0.07
		c0.08-0.05,0.14-0.11,0.19-0.19c0.05-0.08,0.07-0.17,0.07-0.27c0-0.11-0.02-0.21-0.07-0.29c-0.05-0.08-0.11-0.15-0.19-0.2
		c-0.08-0.05-0.17-0.07-0.28-0.07h-0.51V30.84z"/>
	<path class="st1" d="M87.14,32.14c-0.2,0-0.39-0.03-0.55-0.1c-0.17-0.07-0.31-0.16-0.43-0.29c-0.12-0.12-0.21-0.27-0.28-0.44
		c-0.07-0.17-0.1-0.35-0.1-0.56c0-0.2,0.03-0.39,0.1-0.55c0.07-0.17,0.16-0.31,0.28-0.44c0.12-0.12,0.26-0.22,0.43-0.29
		c0.17-0.07,0.35-0.1,0.55-0.1c0.2,0,0.39,0.03,0.55,0.1c0.17,0.07,0.31,0.16,0.43,0.29c0.12,0.12,0.22,0.27,0.28,0.44
		c0.07,0.17,0.1,0.35,0.1,0.55c0,0.2-0.03,0.39-0.1,0.56c-0.07,0.17-0.16,0.31-0.28,0.44c-0.12,0.12-0.27,0.22-0.43,0.29
		C87.52,32.1,87.34,32.14,87.14,32.14z M87.14,31.81c0.15,0,0.29-0.03,0.41-0.08c0.12-0.05,0.23-0.13,0.32-0.22
		c0.09-0.1,0.16-0.21,0.21-0.34c0.05-0.13,0.07-0.27,0.07-0.42c0-0.15-0.02-0.29-0.07-0.42c-0.05-0.13-0.12-0.24-0.21-0.34
		c-0.09-0.1-0.2-0.17-0.32-0.22c-0.12-0.05-0.26-0.08-0.41-0.08c-0.15,0-0.29,0.03-0.41,0.08c-0.12,0.05-0.23,0.13-0.32,0.22
		c-0.09,0.1-0.16,0.21-0.21,0.34c-0.05,0.13-0.08,0.27-0.08,0.42c0,0.15,0.03,0.29,0.08,0.42c0.05,0.13,0.12,0.24,0.21,0.34
		c0.09,0.1,0.2,0.17,0.32,0.22C86.85,31.79,86.99,31.81,87.14,31.81z"/>
	<path class="st1" d="M89.32,32.1c-0.05,0-0.09-0.02-0.13-0.05c-0.03-0.03-0.05-0.08-0.05-0.13V29.6c0-0.05,0.02-0.1,0.05-0.13
		c0.03-0.03,0.08-0.05,0.13-0.05h0.82c0.16,0,0.29,0.03,0.41,0.09c0.12,0.06,0.21,0.14,0.28,0.25c0.07,0.11,0.1,0.23,0.1,0.37
		c0,0.11-0.03,0.21-0.09,0.3c-0.06,0.09-0.14,0.16-0.25,0.21c0.15,0.04,0.27,0.11,0.36,0.22c0.09,0.11,0.14,0.25,0.14,0.42
		c0,0.16-0.04,0.3-0.11,0.42c-0.07,0.12-0.18,0.22-0.31,0.29c-0.13,0.07-0.29,0.1-0.46,0.1H89.32z M89.49,30.52h0.64
		c0.13,0,0.24-0.03,0.32-0.1c0.08-0.06,0.13-0.16,0.13-0.29c0-0.13-0.04-0.23-0.13-0.29c-0.08-0.06-0.19-0.09-0.32-0.09h-0.64V30.52
		z M89.49,31.77h0.72c0.11,0,0.2-0.02,0.28-0.05c0.08-0.04,0.14-0.09,0.19-0.16c0.05-0.07,0.07-0.16,0.07-0.26
		c0-0.1-0.02-0.18-0.07-0.24c-0.05-0.06-0.11-0.11-0.19-0.15c-0.08-0.03-0.17-0.05-0.28-0.05h-0.72V31.77z"/>
	<path class="st1" d="M91.88,32.1c-0.05,0-0.09-0.02-0.13-0.05c-0.03-0.03-0.05-0.08-0.05-0.13v-2.35c0-0.05,0.02-0.09,0.05-0.12
		c0.03-0.03,0.08-0.04,0.13-0.04c0.05,0,0.1,0.01,0.13,0.04c0.03,0.03,0.05,0.07,0.05,0.12v0.87h0.72c0.17,0,0.32,0.03,0.46,0.1
		c0.13,0.07,0.24,0.16,0.31,0.28c0.07,0.12,0.11,0.26,0.11,0.42c0,0.16-0.04,0.31-0.11,0.44s-0.18,0.23-0.31,0.3
		c-0.13,0.07-0.29,0.11-0.46,0.11H91.88z M92.06,31.77h0.72c0.11,0,0.2-0.02,0.28-0.06c0.08-0.04,0.14-0.1,0.19-0.17
		c0.05-0.08,0.07-0.17,0.07-0.28c0-0.11-0.02-0.21-0.07-0.28c-0.05-0.07-0.11-0.13-0.19-0.16c-0.08-0.04-0.17-0.05-0.28-0.05h-0.72
		V31.77z"/>
	<path class="st1" d="M94.39,32.1c-0.05,0-0.09-0.02-0.13-0.05c-0.03-0.03-0.05-0.08-0.05-0.13V29.6c0-0.05,0.02-0.1,0.05-0.13
		c0.03-0.03,0.08-0.05,0.13-0.05c0.05,0,0.1,0.02,0.13,0.05c0.03,0.03,0.05,0.08,0.05,0.13v0.99h0.77v0.32h-0.77v1.02
		c0,0.05-0.02,0.09-0.05,0.13C94.48,32.09,94.44,32.1,94.39,32.1z M96.41,32.14c-0.19,0-0.37-0.03-0.53-0.1
		c-0.16-0.07-0.29-0.16-0.41-0.29c-0.11-0.12-0.2-0.27-0.27-0.44c-0.06-0.17-0.09-0.35-0.09-0.56c0-0.2,0.03-0.39,0.09-0.55
		c0.06-0.17,0.15-0.31,0.27-0.44c0.11-0.12,0.25-0.22,0.41-0.29c0.16-0.07,0.33-0.1,0.53-0.1c0.2,0,0.38,0.03,0.54,0.1
		c0.16,0.07,0.3,0.16,0.42,0.29c0.12,0.12,0.21,0.27,0.28,0.44c0.06,0.17,0.1,0.35,0.1,0.55c0,0.2-0.03,0.39-0.1,0.56
		c-0.06,0.17-0.16,0.31-0.28,0.44c-0.12,0.12-0.26,0.22-0.42,0.29C96.79,32.1,96.61,32.14,96.41,32.14z M96.41,31.81
		c0.14,0,0.28-0.03,0.4-0.08c0.12-0.05,0.22-0.13,0.31-0.22c0.09-0.1,0.16-0.21,0.2-0.34c0.05-0.13,0.07-0.27,0.07-0.42
		c0-0.15-0.02-0.29-0.07-0.42c-0.05-0.13-0.12-0.24-0.2-0.34c-0.09-0.1-0.19-0.17-0.31-0.22c-0.12-0.05-0.25-0.08-0.4-0.08
		c-0.14,0-0.27,0.03-0.38,0.08c-0.12,0.05-0.22,0.13-0.3,0.22c-0.08,0.1-0.15,0.21-0.2,0.34c-0.05,0.13-0.07,0.27-0.07,0.42
		c0,0.15,0.02,0.29,0.07,0.42c0.05,0.13,0.11,0.24,0.2,0.34c0.09,0.1,0.19,0.17,0.3,0.22C96.15,31.79,96.27,31.81,96.41,31.81z"/>
</g>
<path class="st1" d="M27.98,4.45v6.26c0.02,4.76-3.68,8.63-8.27,8.65c0,0,0,0-0.01,0h-6v2.39h7.14c5.27-0.17,9.44-4.67,9.41-10.13
	V4.45H27.98z"/>
<path class="st0" d="M19.7,2.02C19.7,2.02,19.7,2.02,19.7,2.02c-4.59,0.02-8.29,3.89-8.27,8.65v5.95L2.26,27.19
	c-0.75,0.86-0.66,2.18,0.21,2.93c0.86,0.75,2.18,0.66,2.93-0.21l9.19-10.58h5.12c0,0,0,0,0.01,0c4.59-0.02,8.29-3.89,8.27-8.65V2.02
	H19.7z"/>
<polygon class="st0" points="5.87,30.79 11.44,35.6 12.94,33.87 10.5,31.76 11.75,30.32 13.63,31.94 14.87,30.51 12.99,28.88 
	14.24,27.44 16.68,29.54 18.3,27.66 12.73,22.85 "/>
</svg>
