<svg width="78" height="98" viewBox="0 0 78 98" fill="none" xmlns="http://www.w3.org/2000/svg">
<g clip-path="url(#clip0)">
<path d="M65.68 2.75323e-09H12.24C9.00023 0.021056 5.8991 1.32267 3.60819 3.62297C1.31727 5.92328 0.0209701 9.03711 0 12.2902V85.7098C0.0209701 88.9629 1.31727 92.0767 3.60819 94.377C5.8991 96.6773 9.00023 97.9789 12.24 98H65.68C68.9336 98.0001 72.0552 96.7078 74.3634 94.4052C76.6716 92.1026 77.9789 88.9768 78 85.7098V12.2902C77.9789 9.02324 76.6716 5.89736 74.3634 3.59479C72.0552 1.29221 68.9336 -6.88753e-05 65.68 2.75323e-09ZM4.56 85.7098V12.2902C4.56 10.245 5.36914 8.28351 6.80942 6.83733C8.2497 5.39114 10.2031 4.57869 12.24 4.57869H13.28V93.4213H12.24C10.2031 93.4213 8.2497 92.6089 6.80942 91.1627C5.36914 89.7165 4.56 87.755 4.56 85.7098ZM73.44 85.7098C73.4189 87.7624 72.5921 89.7237 71.1391 91.1676C69.6861 92.6115 67.7243 93.4214 65.68 93.4213H15.6V4.57869H65.68C67.7243 4.57858 69.6861 5.38846 71.1391 6.83238C72.5921 8.2763 73.4189 10.2376 73.44 12.2902V85.7098Z" fill="#069E2D"/>
<path d="M68.96 14.9409H21.6C20.9847 14.9409 20.3946 15.1863 19.9595 15.6232C19.5245 16.0601 19.28 16.6526 19.28 17.2704C19.2798 17.5727 19.3403 17.8719 19.4579 18.1501C19.5754 18.4284 19.7476 18.68 19.9641 18.8899C20.1807 19.0999 20.4372 19.2638 20.7182 19.372C20.9993 19.4802 21.2992 19.5304 21.6 19.5196H68.96C69.2609 19.5304 69.5608 19.4802 69.8418 19.372C70.1229 19.2638 70.3794 19.0999 70.5959 18.8899C70.8125 18.68 70.9847 18.4284 71.1022 18.1501C71.2197 17.8719 71.2802 17.5727 71.28 17.2704C71.28 16.6526 71.0356 16.0601 70.6005 15.6232C70.1654 15.1863 69.5753 14.9409 68.96 14.9409Z" fill="#069E2D"/>
<path d="M68.96 77.9984H21.6C21.2649 77.9351 20.92 77.9468 20.5898 78.0325C20.2597 78.1183 19.9525 78.2761 19.69 78.4947C19.4275 78.7133 19.2162 78.9873 19.0712 79.2972C18.9262 79.6072 18.8511 79.9453 18.8511 80.2878C18.8511 80.6302 18.9262 80.9684 19.0712 81.2783C19.2162 81.5882 19.4275 81.8622 19.69 82.0808C19.9525 82.2994 20.2597 82.4572 20.5898 82.543C20.92 82.6288 21.2649 82.6404 21.6 82.5771H68.96C69.2952 82.6404 69.6401 82.6288 69.9702 82.543C70.3003 82.4572 70.6076 82.2994 70.8701 82.0808C71.1325 81.8622 71.3438 81.5882 71.4888 81.2783C71.6338 80.9684 71.709 80.6302 71.709 80.2878C71.709 79.9453 71.6338 79.6072 71.4888 79.2972C71.3438 78.9873 71.1325 78.7133 70.8701 78.4947C70.6076 78.2761 70.3003 78.1183 69.9702 78.0325C69.6401 77.9468 69.2952 77.9351 68.96 77.9984Z" fill="#069E2D"/>
<path d="M37.12 36.71V43.8591H30V54.1411H37.12V61.2903H47.36V54.1411H54.48V43.8591H47.36V36.71H37.12Z" fill="#069E2D"/>
</g>
<defs>
<clipPath id="clip0">
<rect width="78" height="98" fill="white"/>
</clipPath>
</defs>
</svg>
