<svg width="99" height="89" viewBox="0 0 99 89" fill="none" xmlns="http://www.w3.org/2000/svg">
<g clip-path="url(#clip0)">
<path d="M98.7689 62.3463L91.2187 46.8176C91.0724 46.5301 90.8658 46.2777 90.6131 46.0777C90.3605 45.8777 90.0677 45.7348 89.7549 45.6588C89.4369 45.589 89.1079 45.5873 88.7892 45.6539C88.4706 45.7204 88.1696 45.8537 87.9059 46.0451L75.1168 55.7794C74.8871 55.9465 74.694 56.159 74.5492 56.4037C74.4045 56.6484 74.3112 56.9203 74.2751 57.2025C74.239 57.4847 74.2609 57.7714 74.3394 58.0448C74.4179 58.3182 74.5513 58.5727 74.7315 58.7924C75.0838 59.257 75.603 59.5653 76.1785 59.6519C76.7541 59.7385 77.3406 59.5964 77.8133 59.256L86.365 52.7664C80.972 75.0937 70.2631 84.5963 50.6171 84.5963C25.3471 84.5963 11.4794 71.6171 11.4794 47.9765C11.5401 47.6528 11.5289 47.3197 11.4467 47.0009C11.3644 46.6821 11.213 46.3854 11.0034 46.1319C10.7937 45.8784 10.5309 45.6744 10.2337 45.5344C9.93645 45.3944 9.61209 45.3218 9.28368 45.3218C8.95527 45.3218 8.63091 45.3944 8.33367 45.5344C8.03643 45.6744 7.77363 45.8784 7.56397 46.1319C7.35432 46.3854 7.20297 46.6821 7.12069 47.0009C7.03841 47.3197 7.02724 47.6528 7.08796 47.9765C7.08796 74.0121 22.9588 88.9999 50.6171 88.9999C78.2755 88.9999 86.288 71.2308 90.2942 54.9296L94.8397 64.2004C95.0102 64.5851 95.2928 64.909 95.6503 65.1296C96.0078 65.3503 96.4235 65.4572 96.8428 65.4365C97.1647 65.4321 97.4812 65.3527 97.7673 65.2048C98.0255 65.0891 98.2575 64.9219 98.4491 64.7133C98.6407 64.5047 98.7878 64.2592 98.8815 63.9916C98.9753 63.7241 99.0136 63.4402 98.9943 63.1573C98.9749 62.8744 98.8982 62.5984 98.7689 62.3463Z" fill="#069E2D"/>
<path d="M9.24514 40.4826H9.78444C10.2216 40.4623 10.6462 40.3293 11.0171 40.0963L23.8062 31.2117C24.0912 31.066 24.3416 30.8606 24.5405 30.6095C24.7395 30.3584 24.8823 30.0673 24.9595 29.7561C25.0366 29.4448 25.0462 29.1205 24.9875 28.8052C24.9289 28.4899 24.8035 28.1909 24.6197 27.9284C24.4359 27.6659 24.198 27.4461 23.9222 27.2837C23.6464 27.1213 23.339 27.0202 23.0208 26.9873C22.7027 26.9543 22.3812 26.9902 22.078 27.0926C21.7749 27.1949 21.4973 27.3614 21.2638 27.5806L12.7121 33.6067C18.1051 13.2108 28.814 4.40356 48.4599 4.40356C60.7097 4.40356 70.186 7.18481 76.7346 12.7473C83.2833 18.3098 86.8272 26.9626 86.8272 38.0876C86.8272 38.6613 87.0545 39.2115 87.4591 39.6172C87.8636 40.0229 88.4123 40.2508 88.9844 40.2508C89.5566 40.2508 90.1053 40.0229 90.5098 39.6172C90.9144 39.2115 91.1416 38.6613 91.1416 38.0876C91.1416 25.572 87.2895 15.9148 79.5082 9.42526C71.7268 2.93568 61.7113 -8.87886e-05 48.4599 0.0771682C21.2638 0.0771682 12.7891 16.6102 8.70583 31.6753L4.16031 23.0225C3.8684 22.5164 3.39657 22.1397 2.83936 21.9678C2.28216 21.7959 1.68075 21.8415 1.15564 22.0954C0.901414 22.2259 0.675562 22.4057 0.491186 22.6245C0.30681 22.8432 0.167581 23.0964 0.0815771 23.3695C-0.00442688 23.6426 -0.0354942 23.9302 -0.00982205 24.2154C0.0158501 24.5006 0.0977507 24.7779 0.231128 25.0312L7.85837 39.401C7.98194 39.6824 8.17338 39.9287 8.41547 40.1175C8.65755 40.3063 8.94266 40.4317 9.24514 40.4826Z" fill="#069E2D"/>
<path d="M44.4537 39.1692V45.5043H38.1362V54.6206H44.4537V61.0329H53.5447V54.6206H59.9393V45.5043H53.5447V39.1692H44.4537Z" fill="#069E2D"/>
<path d="M69.1074 37.1605C70.4289 35.5681 71.1123 33.5397 71.0248 31.4699C70.9373 29.4001 70.085 27.4369 68.6338 25.9624C67.1826 24.4879 65.2363 23.6075 63.1736 23.4925C61.1108 23.3775 59.0792 24.0361 57.4739 25.3402L62.7899 30.7482L60.7097 33.2977C57.5936 31.2236 53.9691 30.0477 50.2319 29.8984V26.0355H53.93V20.5503H45.2241V26.0355H48.614V29.8984C45.0314 30.0506 41.5513 31.1428 38.5214 33.0659L36.2872 30.3619L41.2949 25.3402C39.7053 23.923 37.6348 23.1701 35.5088 23.2362C33.3828 23.3022 31.3628 24.1822 29.8637 25.6954C28.3646 27.2085 27.5003 29.2399 27.4483 31.3722C27.3964 33.5045 28.1608 35.5758 29.5844 37.1605L35.1315 31.5208L37.1346 33.993C34.3943 36.057 32.214 38.7773 30.7931 41.9048C29.3722 45.0323 28.7563 48.4672 29.0015 51.8952C29.2468 55.3231 30.3455 58.6347 32.197 61.5267C34.0486 64.4188 36.5939 66.799 39.6 68.4496C38.8981 68.6138 38.2407 68.9302 37.6739 69.3767C36.056 70.7673 35.5938 73.0078 36.6724 74.3211C37.751 75.6345 40.0623 75.6345 41.7572 74.2439C43.4521 72.8532 43.6833 71.3081 43.144 69.9175C45.1531 70.6016 47.2628 70.9411 49.3844 70.9218C51.5539 70.9079 53.7092 70.5694 55.779 69.9175C55.2397 71.2309 55.779 73.0078 57.1658 74.2439C58.5525 75.48 61.0949 75.7118 62.2506 74.3211C63.4062 72.9305 62.8669 70.7673 61.249 69.3767C60.6575 68.907 59.9756 68.565 59.2459 68.3723C62.2085 66.7436 64.7216 64.4031 66.5601 61.5607C68.3985 58.7182 69.5048 55.4627 69.7797 52.086C70.0545 48.7092 69.4895 45.3169 68.1351 42.2131C66.7807 39.1093 64.6794 36.391 62.0195 34.302L64.0226 31.9071L69.1074 37.1605ZM67.7206 50.3715C67.7359 54.0114 66.6735 57.5739 64.6679 60.6078C62.6624 63.6417 59.8041 66.0104 56.4549 67.414C53.1058 68.8175 49.4166 69.1927 45.8547 68.492C42.2928 67.7912 39.0184 66.0461 36.4463 63.4778C33.8742 60.9094 32.1202 57.6333 31.4064 54.0644C30.6926 50.4955 31.0512 46.7946 32.4368 43.4302C33.8223 40.0659 36.1724 37.1897 39.1894 35.1658C42.2065 33.142 45.7546 32.0616 49.3844 32.0616C54.228 32.0817 58.8686 34.0148 62.3007 37.4421C65.7329 40.8693 67.6801 45.5146 67.7206 50.3715Z" fill="#069E2D"/>
</g>
<defs>
<clipPath id="clip0">
<rect width="99" height="89" fill="white"/>
</clipPath>
</defs>
</svg>
