<svg width="63" height="98" viewBox="0 0 63 98" fill="none" xmlns="http://www.w3.org/2000/svg">
<g clip-path="url(#clip0)">
<path d="M47.7955 0H15.2045C11.172 0 7.30468 1.60446 4.45328 4.46041C1.60189 7.31635 0 11.1899 0 15.2288V82.7712C0 86.8102 1.60189 90.6836 4.45328 93.5396C7.30468 96.3955 11.172 98 15.2045 98H47.7955C51.828 98 55.6953 96.3955 58.5467 93.5396C61.3981 90.6836 63 86.8102 63 82.7712V15.2288C63 11.1899 61.3981 7.31635 58.5467 4.46041C55.6953 1.60446 51.828 0 47.7955 0ZM18.8648 3.38417H41.4603C41.8827 6.69784 41.7419 9.94101 41.2492 10.646C35.6179 11.0691 24.9184 11.4921 19.9207 10.646C18.8648 10.505 18.5128 6.83885 18.8648 3.38417ZM59.6212 82.7712C59.6212 85.9126 58.3753 88.9253 56.1576 91.1466C53.9398 93.3679 50.9319 94.6158 47.7955 94.6158H15.2045C12.0681 94.6158 9.06018 93.3679 6.84244 91.1466C4.62469 88.9253 3.37877 85.9126 3.37877 82.7712V76.5669H59.6212V82.7712ZM59.6212 73.2532H3.37877V19.3885L6.68715 22.6317L5.91285 27.2849L10.0659 25.0993L14.219 27.2849L13.4447 22.6317L15.4156 20.6576L17.3866 22.6317L16.6123 27.2849L20.7654 25.0993L24.9184 27.2849L24.1441 22.6317L26.0447 20.7281L28.0156 22.6317L27.1709 27.2849L31.324 25.0993L35.4771 27.2849L34.7028 22.6317L36.7441 20.6576L38.8559 22.6317L38.0112 27.2849L42.1642 25.0993L46.3173 27.2849L45.543 22.6317L47.514 20.6576L49.5553 22.6317L48.7106 27.2849L52.8637 25.0993L57.0168 27.2849L56.2425 22.6317L59.6212 19.3885L54.9754 18.6835L52.8637 14.4532L50.8223 18.6835L47.514 19.177L44.276 18.6835L42.1642 14.4532L40.1229 18.6835L36.7441 19.177L33.4357 18.6835L31.324 14.4532L29.2827 18.6835L26.0447 19.177L22.8771 18.6835L20.7654 14.4532L18.724 18.6835L15.4156 19.177L12.1777 18.6835L10.0659 14.4532L8.02458 18.6835L3.37877 19.318V15.2288C3.37877 12.0874 4.62469 9.07467 6.84244 6.85338C9.06018 4.63208 12.0681 3.38417 15.2045 3.38417H16.6123C16.3307 6.34532 16.1196 12.3381 19.4983 12.9022C22.4163 13.271 25.3564 13.4359 28.2972 13.3957C33.5765 13.3957 38.9966 13.0432 41.5307 12.8317C41.8209 12.829 42.1062 12.7573 42.3632 12.6224C42.6202 12.4876 42.8416 12.2935 43.0089 12.0561C44.3464 10.364 43.9944 5.7813 43.7128 3.38417H47.7955C50.9319 3.38417 53.9398 4.63208 56.1576 6.85338C58.3753 9.07467 59.6212 12.0874 59.6212 15.2288V73.2532ZM12.3184 24.6763L10.0659 23.4777L7.81341 24.6763L8.23575 22.1381L6.40559 20.3755L8.93966 19.9525L10.0659 17.6259L11.1922 19.9525L13.7263 20.3755L11.8961 22.1381L12.3184 24.6763ZM23.0179 24.6763L20.7654 23.4777L18.5128 24.6763L18.9352 22.1381L17.105 20.3755L19.6391 19.9525L20.7654 17.6259L21.8916 19.9525L24.4257 20.3755L22.5955 22.1381L23.0179 24.6763ZM33.6469 24.6763L31.324 23.4777L29.0715 24.6763L29.4939 22.1381L27.6637 20.3755L30.1978 19.9525L31.324 17.6259L32.4503 19.9525L35.0547 20.3755L33.1542 22.1381L33.6469 24.6763ZM44.4871 24.6763L42.1642 23.4777L39.9117 24.6763L40.3341 22.1381L38.5039 20.3755L41.038 19.9525L42.1642 17.6259L43.2905 19.9525L45.895 20.3755L43.9944 22.1381L44.4871 24.6763ZM55.1866 24.6763L52.8637 23.4777L50.6112 24.6763L51.0335 22.1381L49.2033 20.3755L51.7374 19.9525L52.8637 17.6259L53.9899 19.9525L56.5944 20.3755L54.6939 22.1381L55.1866 24.6763Z" fill="#069E2D"/>
<path d="M20.0614 58.0243C20.0614 58.0243 19.4279 53.4416 22.8771 50.692C24.1441 49.6344 25.5519 48.5064 26.467 47.6603C27.0486 48.4304 27.798 49.0574 28.6581 49.4936C29.5183 49.9297 30.4664 50.1635 31.4304 50.1771C32.3944 50.1907 33.3487 49.9838 34.2208 49.5721C35.0928 49.1603 35.8595 48.5547 36.4626 47.8013C37.3073 48.6474 38.6447 49.7049 39.8413 50.692C43.2905 53.4416 42.657 58.0243 42.657 58.0243L44.1352 58.2359C44.2056 58.0243 44.9095 52.8071 40.7564 49.4934C38.8559 47.9423 37.8704 47.0258 37.3776 46.6028C38.5117 44.7347 39.0971 42.5845 39.067 40.3984C39.067 35.0402 35.6883 30.6689 31.5352 30.6689C27.3821 30.6689 23.933 35.0402 23.933 40.3984C23.9241 42.5056 24.4835 44.5761 25.5519 46.3913C24.3924 47.4949 23.1703 48.5307 21.8916 49.4934C17.8089 52.8071 18.5128 58.0243 18.5832 58.2359L20.0614 58.0243ZM25.4816 40.3984C25.4816 35.8862 28.1564 32.22 31.5352 32.22C34.914 32.22 37.5184 35.8862 37.5184 40.3984C37.5184 44.9107 34.8436 48.6474 31.5352 48.6474C28.2268 48.6474 25.4816 44.9812 25.4816 40.3984Z" fill="#069E2D"/>
<path d="M31.324 92.3598C32.7082 92.3737 34.0652 91.9744 35.2219 91.2129C36.3786 90.4513 37.2827 89.3619 37.8188 88.0837C38.355 86.8055 38.4989 85.3963 38.2323 84.0358C37.9656 82.6753 37.3005 81.4251 36.3217 80.4447C35.3429 79.4644 34.0947 78.7982 32.7364 78.5311C31.3781 78.264 29.9711 78.4082 28.6949 78.9452C27.4187 79.4822 26.3311 80.3877 25.5708 81.5463C24.8104 82.7049 24.4118 84.064 24.4257 85.4504C24.4257 86.3577 24.6041 87.2562 24.9508 88.0945C25.2975 88.9328 25.8056 89.6945 26.4462 90.3361C27.0867 90.9777 27.8472 91.4866 28.6842 91.8338C29.5211 92.181 30.4181 92.3598 31.324 92.3598ZM31.324 80.7267C32.2597 80.7127 33.1783 80.9778 33.9631 81.4883C34.7479 81.9987 35.3633 82.7315 35.7311 83.5933C36.0989 84.4551 36.2024 85.4071 36.0284 86.328C35.8545 87.2489 35.4109 88.0972 34.7543 88.7649C34.0976 89.4326 33.2574 89.8895 32.3407 90.0776C31.424 90.2656 30.4721 90.1763 29.6062 89.8209C28.7404 89.4655 27.9996 88.8602 27.4782 88.082C26.9568 87.3037 26.6783 86.3876 26.6782 85.4504C26.6781 84.2097 27.1653 83.0188 28.0346 82.1349C28.9039 81.251 30.0855 80.7452 31.324 80.7267Z" fill="#069E2D"/>
<path d="M47.6547 61.8316H14.5005C14.3592 61.821 14.2172 61.8412 14.0844 61.8906C13.9515 61.94 13.8308 62.0176 13.7306 62.118C13.6304 62.2183 13.5529 62.3392 13.5036 62.4723C13.4543 62.6054 13.4342 62.7476 13.4447 62.8891C13.4447 63.1696 13.5559 63.4386 13.7539 63.6369C13.9519 63.8353 14.2205 63.9467 14.5005 63.9467H47.6547C47.9348 63.9467 48.2033 63.8353 48.4013 63.6369C48.5994 63.4386 48.7106 63.1696 48.7106 62.8891C48.7211 62.7476 48.701 62.6054 48.6517 62.4723C48.6023 62.3392 48.5249 62.2183 48.4247 62.118C48.3244 62.0176 48.2038 61.94 48.0709 61.8906C47.938 61.8412 47.7961 61.821 47.6547 61.8316Z" fill="#069E2D"/>
<path d="M47.6547 64.7927H14.5005C14.2205 64.7927 13.9519 64.9041 13.7539 65.1025C13.5559 65.3008 13.4447 65.5698 13.4447 65.8503C13.4342 65.9919 13.4543 66.134 13.5036 66.2671C13.5529 66.4002 13.6304 66.5211 13.7306 66.6214C13.8308 66.7218 13.9515 66.7994 14.0844 66.8488C14.2172 66.8982 14.3592 66.9184 14.5005 66.9078H47.6547C47.7961 66.9184 47.938 66.8982 48.0709 66.8488C48.2038 66.7994 48.3244 66.7218 48.4247 66.6214C48.5249 66.5211 48.6023 66.4002 48.6517 66.2671C48.701 66.134 48.7211 65.9919 48.7106 65.8503C48.7106 65.5698 48.5994 65.3008 48.4013 65.1025C48.2033 64.9041 47.9348 64.7927 47.6547 64.7927Z" fill="#069E2D"/>
<path d="M47.6548 67.8245H14.5006C14.2205 67.8245 13.952 67.9359 13.754 68.1342C13.5559 68.3325 13.4447 68.6015 13.4447 68.882C13.4447 69.1625 13.5559 69.4315 13.754 69.6298C13.952 69.8281 14.2205 69.9396 14.5006 69.9396H47.6548C47.9348 69.9396 48.2034 69.8281 48.4014 69.6298C48.5994 69.4315 48.7106 69.1625 48.7106 68.882C48.7106 68.6015 48.5994 68.3325 48.4014 68.1342C48.2034 67.9359 47.9348 67.8245 47.6548 67.8245Z" fill="#069E2D"/>
</g>
<defs>
<clipPath id="clip0">
<rect width="63" height="98" fill="white"/>
</clipPath>
</defs>
</svg>
