<svg width="62" height="96" viewBox="0 0 62 96" fill="none" xmlns="http://www.w3.org/2000/svg">
<g clip-path="url(#clip0)">
<path d="M47.0027 0H14.9135C10.9582 0 7.16489 1.56687 4.36806 4.35593C1.57124 7.14498 1.82868e-09 10.9277 1.82868e-09 14.8721V81.0444C-6.18422e-05 84.9964 1.5685 88.7878 4.36294 91.5902C7.15739 94.3925 10.9505 95.9779 14.9135 96H47.0027C50.9657 95.9779 54.7588 94.3925 57.5533 91.5902C60.3477 88.7878 61.9163 84.9964 61.9162 81.0444V14.8721C61.9162 10.9277 60.345 7.14498 57.5481 4.35593C54.7513 1.56687 50.958 0 47.0027 0ZM18.5162 3.25849H40.7189C41.1378 6.51697 41.0541 9.69191 40.5513 10.3603C34.9378 10.8616 24.4649 11.2794 19.5216 10.4439C18.4324 10.2768 18.1811 6.60052 18.5162 3.25849ZM58.6486 81.0444C58.6486 84.1245 57.4217 87.0785 55.2376 89.2564C53.0536 91.4344 50.0914 92.658 47.0027 92.658H14.9135C11.8248 92.658 8.86262 91.4344 6.67858 89.2564C4.49455 87.0785 3.26757 84.1245 3.26757 81.0444V75.0287H58.6486V81.0444ZM58.6486 71.6867H3.26757V14.8721C3.26757 11.792 4.49455 8.83799 6.67858 6.66002C8.86262 4.48206 11.8248 3.25849 14.9135 3.25849H16.2541C16.0027 6.18277 15.8351 12.0313 19.1865 12.6162C22.0479 12.9828 24.9315 13.1503 27.8162 13.1175C32.927 13.1175 38.373 12.7833 40.8027 12.5326C41.0817 12.523 41.3549 12.4504 41.6016 12.3201C41.8484 12.1899 42.0622 12.0054 42.227 11.7807C43.5676 10.1097 43.2324 5.59791 42.9811 3.25849H47.0027C50.0846 3.28036 53.0341 4.51095 55.2134 6.6842C57.3927 8.85744 58.6267 11.7987 58.6486 14.8721V71.6867Z" fill="#069E2D"/>
<path d="M32.3405 90.4857C34.1481 90.4638 35.8741 89.7323 37.1445 88.4498C38.4148 87.1673 39.1272 85.4372 39.127 83.6346C39.127 81.8397 38.412 80.1183 37.1393 78.8491C35.8666 77.58 34.1404 76.8669 32.3405 76.8669C30.5329 76.8668 28.798 77.5771 27.5119 78.844C26.2259 80.1108 25.4923 81.832 25.4703 83.6346C25.4703 85.4516 26.1941 87.1942 27.4825 88.4791C28.771 89.7639 30.5184 90.4857 32.3405 90.4857ZM32.3405 79.0393C33.5627 79.0393 34.7348 79.5234 35.599 80.3852C36.4632 81.247 36.9487 82.4158 36.9487 83.6346C36.9487 84.8533 36.4632 86.0222 35.599 86.8839C34.7348 87.7457 33.5627 88.2299 32.3405 88.2299C31.7323 88.2412 31.128 88.1301 30.5637 87.9032C29.9995 87.6763 29.487 87.3382 29.0568 86.9092C28.6266 86.4802 28.2876 85.9691 28.06 85.4064C27.8325 84.8438 27.7211 84.2412 27.7324 83.6346C27.7324 82.4158 28.2179 81.247 29.0821 80.3852C29.9463 79.5234 31.1184 79.0393 32.3405 79.0393Z" fill="#069E2D"/>
<path d="M48.3433 66.1724H15.6676C15.3343 66.1724 15.0146 66.3044 14.7789 66.5394C14.5432 66.7745 14.4108 67.0932 14.4108 67.4256C14.4108 67.758 14.5432 68.0768 14.7789 68.3118C15.0146 68.5469 15.3343 68.6789 15.6676 68.6789H48.3433C48.5115 68.6914 48.6805 68.6675 48.8386 68.609C48.9968 68.5504 49.1404 68.4585 49.2597 68.3395C49.379 68.2206 49.4711 68.0773 49.5299 67.9196C49.5886 67.7619 49.6125 67.5934 49.6 67.4256C49.6 67.0932 49.4676 66.7745 49.2319 66.5394C48.9962 66.3044 48.6766 66.1724 48.3433 66.1724Z" fill="#069E2D"/>
<path d="M43.1487 25.5665L40.6352 20.9712C40.5484 20.8502 40.4358 20.7499 40.3053 20.6776C40.1749 20.6053 40.03 20.5629 39.8811 20.5535H22.9568C22.8172 20.5544 22.6807 20.594 22.5624 20.6677C22.444 20.7415 22.3485 20.8466 22.2865 20.9712L19.9406 25.5665H19.3541C16.3543 25.5665 13.4773 26.7549 11.3561 28.8702C9.23495 30.9855 8.04327 33.8544 8.04327 36.8459V43.6135C8.04327 46.605 9.23495 49.4739 11.3561 51.5892C13.4773 53.7045 16.3543 54.8929 19.3541 54.8929H43.0649C46.0579 54.871 48.9222 53.6756 51.0386 51.5651C53.1551 49.4545 54.3538 46.5982 54.3757 43.6135V36.8459C54.3541 33.8755 53.167 31.0316 51.0685 28.9233C48.97 26.8151 46.1271 25.6101 43.1487 25.5665ZM27.3973 24.0626H35.1054V24.8146H27.3973V24.0626ZM23.5433 22.2245H39.3784L41.2216 25.5665H36.6135C36.7092 25.3264 36.7658 25.0725 36.7811 24.8146V24.0626C36.7811 23.6194 36.6046 23.1944 36.2903 22.881C35.9761 22.5676 35.5499 22.3916 35.1054 22.3916H27.3973C26.9529 22.3916 26.5267 22.5676 26.2124 22.881C25.8982 23.1944 25.7216 23.6194 25.7216 24.0626V24.8146C25.697 25.0765 25.7556 25.3396 25.8892 25.5665H21.7838L23.5433 22.2245ZM51.8622 43.6135C51.8622 45.9402 50.9353 48.1716 49.2855 49.8169C47.6357 51.4621 45.3981 52.3864 43.0649 52.3864H19.3541C17.0209 52.3864 14.7833 51.4621 13.1335 49.8169C11.4836 48.1716 10.5568 45.9402 10.5568 43.6135V36.8459C10.5568 34.5192 11.4836 32.2878 13.1335 30.6426C14.7833 28.9973 17.0209 28.073 19.3541 28.073H29.3244C26.3877 28.5356 23.7339 30.0855 21.8925 32.4132C20.0511 34.741 19.1577 37.6756 19.3903 40.6313C19.623 43.5871 20.9647 46.3467 23.1477 48.3594C25.3307 50.3722 28.1945 51.4901 31.1676 51.4901C34.1407 51.4901 37.0045 50.3722 39.1875 48.3594C41.3705 46.3467 42.7122 43.5871 42.9449 40.6313C43.1775 37.6756 42.284 34.741 40.4427 32.4132C38.6013 30.0855 35.9475 28.5356 33.0108 28.073H43.0649C45.3981 28.073 47.6357 28.9973 49.2855 30.6426C50.9353 32.2878 51.8622 34.5192 51.8622 36.8459V43.6135ZM31.1676 30.4125C33.007 30.4125 34.805 30.9564 36.3344 31.9754C37.8638 32.9945 39.0558 34.4429 39.7597 36.1376C40.4636 37.8322 40.6477 39.6969 40.2889 41.4959C39.9301 43.2949 39.0443 44.9474 37.7437 46.2444C36.4431 47.5415 34.786 48.4247 32.9819 48.7826C31.1779 49.1404 29.308 48.9568 27.6086 48.2548C25.9093 47.5529 24.4568 46.3642 23.4349 44.8391C22.413 43.3139 21.8676 41.5209 21.8676 39.6866C21.8676 38.4687 22.1081 37.2628 22.5755 36.1376C23.0429 35.0124 23.7279 33.99 24.5915 33.1288C25.4551 32.2676 26.4803 31.5845 27.6086 31.1184C28.737 30.6524 29.9463 30.4125 31.1676 30.4125Z" fill="#069E2D"/>
<path d="M27.2297 61.9113C27.2297 61.446 27.0443 60.9997 26.7144 60.6706C26.3844 60.3416 25.9369 60.1567 25.4703 60.1567C25.243 60.1565 25.018 60.2023 24.809 60.2914C24.6001 60.3806 24.4115 60.5112 24.2547 60.6753C24.098 60.8395 23.9764 61.0337 23.8973 61.2461C23.8181 61.4586 23.7832 61.6849 23.7946 61.9113C23.7946 62.3545 23.9711 62.7795 24.2854 63.0929C24.5996 63.4063 25.0258 63.5823 25.4703 63.5823C25.6973 63.5937 25.9242 63.5588 26.1373 63.4799C26.3503 63.4011 26.5451 63.2798 26.7097 63.1234C26.8743 62.9671 27.0052 62.7791 27.0946 62.5707C27.184 62.3623 27.23 62.138 27.2297 61.9113Z" fill="#069E2D"/>
<path d="M32.927 61.9113C32.927 61.446 32.7417 60.9997 32.4117 60.6706C32.0817 60.3416 31.6342 60.1567 31.1676 60.1567C30.9403 60.1565 30.7153 60.2023 30.5064 60.2914C30.2974 60.3806 30.1088 60.5112 29.9521 60.6753C29.7953 60.8395 29.6737 61.0337 29.5946 61.2461C29.5155 61.4586 29.4805 61.6849 29.4919 61.9113C29.4919 62.3545 29.6684 62.7795 29.9827 63.0929C30.2969 63.4063 30.7232 63.5823 31.1676 63.5823C31.3946 63.5937 31.6215 63.5588 31.8346 63.4799C32.0477 63.4011 32.2424 63.2798 32.407 63.1234C32.5716 62.9671 32.7026 62.7791 32.792 62.5707C32.8814 62.3623 32.9273 62.138 32.927 61.9113Z" fill="#069E2D"/>
<path d="M36.9487 63.6659C37.9204 63.6659 38.7081 62.8803 38.7081 61.9113C38.7081 60.9423 37.9204 60.1567 36.9487 60.1567C35.9769 60.1567 35.1892 60.9423 35.1892 61.9113C35.1892 62.8803 35.9769 63.6659 36.9487 63.6659Z" fill="#069E2D"/>
</g>
<defs>
<clipPath id="clip0">
<rect width="62" height="96" fill="white"/>
</clipPath>
</defs>
</svg>
