<svg width="133" height="118" viewBox="0 0 133 118" fill="none" xmlns="http://www.w3.org/2000/svg">
<path d="M120.4 72.7731C114.291 95.835 102.582 113.003 71.9091 114.797C41.2363 116.591 15.7818 95.4506 13.1091 65.5983" stroke="#069E2D" stroke-width="5" stroke-linecap="round" stroke-linejoin="round"/>
<path d="M2.54547 41.5114L11.7091 55.861L28.2546 47.1488" stroke="#069E2D" stroke-width="4" stroke-linecap="round" stroke-linejoin="round"/>
<path d="M104.873 78.5386L120.909 67.7764L130.455 84.9447" stroke="#069E2D" stroke-width="4" stroke-linecap="round" stroke-linejoin="round"/>
<path d="M88.7091 4.61236C83.4548 2.29645 77.8715 0.826459 72.1636 0.256221C57.1436 -1.13295 42.1903 3.53922 30.5912 13.2455C18.9921 22.9519 11.6968 36.8978 10.3091 52.0173C10.2757 52.3875 10.315 52.7607 10.4248 53.1155C10.5347 53.4704 10.7128 53.8 10.9492 54.0855C11.1856 54.371 11.4755 54.6069 11.8024 54.7796C12.1293 54.9524 12.4868 55.0586 12.8545 55.0923C13.2222 55.1259 13.5929 55.0863 13.9454 54.9758C14.2979 54.8652 14.6254 54.6858 14.909 54.4479C15.1926 54.2099 15.4269 53.9181 15.5985 53.589C15.7701 53.2599 15.8757 52.9 15.9091 52.5298C16.5161 45.7785 18.441 39.2143 21.5735 33.2135C24.7059 27.2126 28.9844 21.8934 34.1634 17.5606C39.3424 13.2279 45.32 9.96702 51.7536 7.96492C58.1872 5.96282 64.9501 5.25891 71.6545 5.89357C75.7838 6.25807 79.8483 7.16253 83.7455 8.58413C85.1652 6.98737 86.8435 5.64442 88.7091 4.61236Z" fill="#069E2D"/>
<path d="M119 36.2584C117.852 38.0095 116.483 39.603 114.927 40.9989C116.908 46.3617 117.816 52.0656 117.6 57.7829C117.583 58.1531 117.638 58.5231 117.764 58.8717C117.889 59.2203 118.081 59.5406 118.329 59.8143C118.577 60.088 118.877 60.3098 119.21 60.4668C119.544 60.6239 119.905 60.7132 120.273 60.7296H120.4C121.112 60.7011 121.789 60.4121 122.305 59.9168C122.82 59.4214 123.139 58.7538 123.2 58.0391C123.337 50.5623 121.906 43.1405 119 36.2584Z" fill="#069E2D"/>
<path d="M100.036 4.0999C103.994 4.09998 107.862 5.28301 111.151 7.49901C114.439 9.715 117 12.8641 118.509 16.5472C120.018 20.2302 120.406 24.2812 119.624 28.1866C118.843 32.092 116.927 35.6759 114.12 38.4839C111.313 41.2919 107.74 43.1975 103.856 43.9591C99.9716 44.7207 95.9499 44.304 92.301 42.7619C88.6521 41.2198 85.5403 38.6216 83.36 35.2969C81.1798 31.9722 80.0293 28.0706 80.0545 24.0869C80.0545 21.4513 80.5722 18.8418 81.5779 16.4085C82.5837 13.9752 84.0575 11.7661 85.9147 9.90846C87.7719 8.05081 89.9757 6.58126 92.3992 5.58439C94.8228 4.58752 97.4183 4.08301 100.036 4.0999ZM100.036 1.53747C95.5701 1.51214 91.1972 2.82383 87.4732 5.30589C83.7492 7.78796 80.8421 11.3284 79.1213 15.4773C77.4005 19.6263 76.9437 24.1966 77.8088 28.6075C78.674 33.0184 80.8221 37.0709 83.9802 40.2501C87.1384 43.4293 91.164 45.5917 95.5457 46.4626C99.9274 47.3336 104.467 46.8737 108.589 45.1414C112.71 43.4091 116.227 40.4827 118.693 36.7338C121.159 32.9849 122.461 28.5829 122.436 24.0869C122.436 18.1064 120.076 12.3709 115.876 8.14204C111.675 3.9132 105.977 1.53747 100.036 1.53747Z" fill="#069E2D"/>
<path d="M60.0727 42.9207C63 38.5646 59.3091 30.3648 55.3636 29.5961C51.4182 28.8274 43.6545 37.2834 41.6182 45.8675C37.6727 62.139 50.7818 80.2041 64.2727 87.1227C69.2963 89.8414 75.0222 90.9584 80.6909 90.3257C82.7273 90.0695 90.1091 89.1726 91 85.329C91.8909 81.4853 83.4909 73.798 79.2909 75.4636C77.3818 76.2324 77.8909 78.5385 75.9818 79.5635C71.1455 81.9978 60.0727 71.2356 55.4909 60.9859C53.9059 57.6385 53.3307 53.8968 53.8364 50.2237C53.9636 47.405 58.9273 44.5863 60.0727 42.9207Z" stroke="#069E2D" stroke-width="2" stroke-miterlimit="10"/>
<path d="M95.9593 23.1168V25.4176H86.7388V23.5875L91.4449 19.1428C91.9446 18.6664 92.2816 18.2597 92.4559 17.9227C92.6302 17.5741 92.7173 17.2313 92.7173 16.8943C92.7173 16.4063 92.5488 16.0345 92.2118 15.7788C91.8865 15.5116 91.4043 15.3779 90.7652 15.3779C90.2306 15.3779 89.7484 15.4825 89.3185 15.6917C88.8885 15.8892 88.5283 16.1913 88.2378 16.598L86.1811 15.2733C86.6575 14.5645 87.314 14.0126 88.1507 13.6175C88.9873 13.2108 89.9459 13.0074 91.0266 13.0074C91.933 13.0074 92.7231 13.1585 93.3971 13.4606C94.0827 13.7511 94.6114 14.1694 94.9832 14.7156C95.3667 15.2501 95.5584 15.8834 95.5584 16.6155C95.5584 17.2778 95.419 17.8995 95.1401 18.4805C94.8612 19.0615 94.3209 19.7238 93.5191 20.4675L90.7129 23.1168H95.9593ZM108.127 22.8554H106.14V25.4176H103.386V22.8554H96.8147V20.9555L102.567 13.2166H105.53L100.196 20.5546H103.473V18.2713H106.14V20.5546H108.127V22.8554Z" fill="#069E2D"/>
</svg>
