<svg width="96" height="118" viewBox="0 0 96 118" fill="none" xmlns="http://www.w3.org/2000/svg">
<g clip-path="url(#clip0)">
<path d="M95.8857 65.7575C95.7616 64.6805 95.4002 63.6439 94.8274 62.7214C94.2546 61.7988 93.4844 61.013 92.5714 60.4196C88.8 57.8075 81.7143 58.3754 74.2857 65.6439C69.8286 69.9596 65.6 74.5024 63.2 77.2281C63.2 77.1145 63.0857 77.1145 63.0857 77.001C56.5714 63.9403 20.2286 68.8239 16.3429 70.3003C12.4572 71.7767 2.28573 78.2502 1.14287 79.0452C0.655562 79.3741 0.314848 79.8773 0.191793 80.4498C0.0687374 81.0222 0.172842 81.6198 0.482396 82.1179C0.79195 82.6159 1.28305 82.976 1.85326 83.1229C2.42347 83.2699 3.02875 83.1924 3.54287 82.9066C6.62859 80.8624 15.2 75.5245 17.9429 74.5024C20.6857 73.4803 54.2857 69.7324 58.9714 79.0452C59.6572 80.4081 60.1143 81.2031 58.2857 82.7931C56.4572 84.3831 42.1714 84.9509 30.4 84.9509C30.1054 84.9355 29.8107 84.9799 29.5339 85.0814C29.2571 85.1829 29.0041 85.3394 28.7902 85.5413C28.5763 85.7433 28.406 85.9864 28.2898 86.2559C28.1736 86.5254 28.1139 86.8156 28.1143 87.1088C28.1395 87.7141 28.3853 88.2898 28.8057 88.7285C29.2262 89.1672 29.7928 89.4392 30.4 89.4938H32.4572C41.3714 89.4938 58.0572 89.0395 61.2572 86.2002C62.2211 85.4335 63.0018 84.4638 63.5429 83.3609L64.3429 82.7931C64.4572 82.6795 70.6286 75.5245 77.4857 68.9374C84.3429 62.3503 88.1143 62.9182 89.8286 64.1675C90.2505 64.4015 90.6137 64.7274 90.8908 65.1208C91.1679 65.5142 91.3518 65.9648 91.4286 66.4389C91.8857 69.7324 87.6572 74.8431 85.7143 77.3417C81.6 82.4524 63.0857 100.283 53.4857 103.349C48.9143 104.712 40.5714 104.144 33.2572 103.577C27.7714 103.236 22.6286 102.782 18.8572 103.236C9.25716 104.258 3.3143 114.252 3.08573 114.593C2.9218 114.852 2.81229 115.142 2.76381 115.444C2.71532 115.746 2.72884 116.055 2.80357 116.352C2.87829 116.649 3.01268 116.928 3.19864 117.172C3.38461 117.417 3.61832 117.621 3.88573 117.773C4.23155 117.97 4.6329 118.05 5.02858 118C5.41278 118.006 5.7922 117.915 6.13179 117.736C6.47137 117.558 6.76015 117.297 6.97144 116.978C7.08573 116.864 12.1143 108.46 19.4286 107.779C23.9263 107.573 28.4329 107.687 32.9143 108.119C41.0286 108.687 49.4857 109.369 54.8572 107.665C66.1714 104.144 85.6 84.8373 89.2572 80.1809C92.9143 75.5245 96.5714 70.641 95.8857 65.7575Z" fill="#069E2D"/>
<path d="M20.5714 37.7055C20.2669 37.6891 19.9624 37.7366 19.6776 37.845C19.3928 37.9533 19.1342 38.1201 18.9185 38.3344C18.7029 38.5487 18.5351 38.8057 18.4261 39.0887C18.317 39.3717 18.2692 39.6743 18.2857 39.9769C18.2857 40.5793 18.5265 41.1571 18.9552 41.5831C19.3838 42.009 19.9652 42.2483 20.5714 42.2483H26.5143V46.9047C26.5143 47.5072 26.7551 48.0849 27.1838 48.5109C27.6124 48.9369 28.1938 49.1762 28.8 49.1762C29.4062 49.1762 29.9876 48.9369 30.4162 48.5109C30.8449 48.0849 31.0857 47.5072 31.0857 46.9047V42.2483H43.0857C43.6919 42.2483 44.2733 42.009 44.702 41.5831C45.1306 41.1571 45.3714 40.5793 45.3714 39.9769C45.3879 39.6743 45.3401 39.3717 45.2311 39.0887C45.122 38.8057 44.9542 38.5487 44.7386 38.3344C44.523 38.1201 44.2643 37.9533 43.9796 37.845C43.6948 37.7366 43.3902 37.6891 43.0857 37.7055H31.0857V35.207H35.8857C37.8286 35.3205 47.4286 35.207 48.5714 29.5284C48.9143 27.5977 49.9429 22.3735 45.3714 18.5121C40.8 14.6507 30.8571 15.8999 28.6857 16.0135C28.1088 16.0678 27.5712 16.3277 27.172 16.7452C26.7729 17.1627 26.5393 17.7096 26.5143 18.2849V30.6641H20.5714C19.9652 30.6641 19.3838 30.9034 18.9552 31.3294C18.5265 31.7554 18.2857 32.3331 18.2857 32.9355C18.2857 33.538 18.5265 34.1157 18.9552 34.5417C19.3838 34.9676 19.9652 35.207 20.5714 35.207H26.5143V37.7055H20.5714ZM31.0857 20.4428C35.8857 20.3292 41.0286 20.7835 42.4 21.9192C43.7714 23.0549 44.5714 25.8942 44 28.7334C43.7714 29.7556 39.8857 30.7777 36 30.6641H31.0857V20.4428Z" fill="#069E2D"/>
<path d="M33.6 58.6025C39.4317 58.6025 45.1325 56.884 49.9814 53.6644C54.8303 50.4447 58.6095 45.8685 60.8412 40.5144C63.0729 35.1603 63.6568 29.2688 62.5191 23.5849C61.3814 17.901 58.5732 12.68 54.4495 8.58215C50.3259 4.4843 45.072 1.69362 39.3523 0.563028C33.6327 -0.567567 27.7041 0.0126958 22.3163 2.23044C16.9285 4.44818 12.3234 8.20379 9.0835 13.0224C5.84356 17.8409 4.11426 23.506 4.11426 29.3013C4.14436 37.0632 7.26055 44.4987 12.7837 49.9873C18.3068 55.4759 25.7891 58.5726 33.6 58.6025ZM33.6 4.54284C38.5275 4.54284 43.3445 5.9949 47.4416 8.71539C51.5387 11.4359 54.7321 15.3026 56.6178 19.8266C58.5035 24.3506 58.9969 29.3287 58.0355 34.1314C57.0742 38.9341 54.7014 43.3456 51.217 46.8081C47.7327 50.2706 43.2934 52.6286 38.4605 53.584C33.6276 54.5393 28.6182 54.049 24.0657 52.1751C19.5132 50.3012 15.6221 47.1278 12.8845 43.0563C10.1469 38.9848 8.68569 34.198 8.68569 29.3013C8.71575 22.7441 11.3503 16.4641 16.0161 11.8274C20.682 7.19078 27.0016 4.57272 33.6 4.54284Z" fill="#069E2D"/>
</g>
<defs>
<clipPath id="clip0">
<rect width="96" height="118" fill="white"/>
</clipPath>
</defs>
</svg>
