<svg width="127" height="120" viewBox="0 0 127 120" fill="none" xmlns="http://www.w3.org/2000/svg">
<path d="M56.1 4.42584H17.8C13.0791 4.42584 8.55165 6.3122 5.2135 9.66993C1.87535 13.0277 2.18262e-09 17.5817 2.18262e-09 22.3303V101.995C-7.38116e-05 106.753 1.87208 111.317 5.20738 114.691C8.54269 118.065 13.07 119.973 17.8 120H56.1C58.4507 120 60.7783 119.534 62.95 118.629C65.1218 117.725 67.095 116.398 68.7572 114.726C70.4194 113.055 71.7379 111.07 72.6374 108.885C73.537 106.701 74 104.359 74 101.995V22.3303C73.9736 17.5725 72.076 13.0187 68.722 9.66378C65.3679 6.30891 60.8301 4.42577 56.1 4.42584ZM48.4 16.8986C41.8 17.5021 29.2 18.0051 23.3 16.9992C22.1 16.798 21.7 12.4728 22.1 8.34873H48.6C49.1 12.2716 49 16.1945 48.4 16.8986ZM56.1 115.977H17.8C15.9793 115.977 14.1766 115.614 12.4958 114.91C10.8149 114.207 9.28916 113.175 8.0064 111.875C6.72364 110.576 5.70923 109.034 5.02162 107.338C4.33402 105.642 3.98681 103.826 4 101.995V94.7527H70V101.995C70 105.703 68.5355 109.259 65.9288 111.881C63.322 114.503 59.7865 115.977 56.1 115.977ZM70 90.7293H4V22.3303C3.99991 18.6395 5.45063 15.0984 8.0358 12.4792C10.621 9.86004 14.1308 8.37528 17.8 8.34873H19.5C19.1 11.8693 18.9 18.9103 22.9 19.6144C26.3107 20.1031 29.756 20.305 33.2 20.218C39.4 20.218 45.8 19.8156 48.8 19.6144C49.4397 19.4925 50.0107 19.1336 50.4 18.6086C52 16.6974 51.6 11.2657 51.3 8.34873H56.1C59.7865 8.34873 63.322 9.82178 65.9288 12.4438C68.5355 15.0659 70 18.6221 70 22.3303V90.7293Z" fill="#069E2D"/>
<path d="M52.9 59.8491C50.8452 58.2802 48.8756 56.6014 47 54.8198C49.0168 51.6754 50.0609 47.9998 50 44.2582C50 35.0042 44.1 27.4602 37 27.4602C29.9 27.4602 24 35.0042 24 44.2582C23.9507 47.8621 24.8845 51.4106 26.7 54.518C24.7337 56.4099 22.6638 58.1897 20.5 59.8491C13.4 65.5826 14.7 74.6354 14.8 75.0377L17.4 74.6354C17.4 74.5348 16.3 66.689 22.2 61.8609C24.3 60.1509 26.8 58.1392 28.3 56.7309C29.2975 58.0472 30.5784 59.1193 32.0466 59.8667C33.5148 60.6141 35.1321 61.0174 36.7773 61.0464C38.4226 61.0755 40.053 60.7294 41.5463 60.0343C43.0396 59.3392 44.3571 58.313 45.4 57.0327C46.9 58.3403 49.2 60.2515 51.3 61.8609C57.2 66.689 56.1 74.5348 56.1 74.6354L58.7 75.0377C58.7 74.6354 60 65.5826 52.9 59.8491ZM37 58.4409C31.3 58.4409 26.6 52.104 26.6 44.2582C26.6 36.4124 31.3 30.0755 37 30.0755C42.7 30.0755 47.3 36.4124 47.3 44.2582C47.3 52.104 42.7 58.4409 37 58.4409Z" fill="#069E2D"/>
<path d="M37 96.9656C34.8425 96.9655 32.7718 97.8207 31.2368 99.3458C29.7019 100.871 28.8264 102.943 28.8 105.113C28.8 107.301 29.664 109.399 31.2018 110.945C32.7396 112.492 34.8253 113.361 37 113.361C39.1574 113.335 41.2176 112.454 42.7338 110.91C44.25 109.366 45.1002 107.283 45.1 105.113C45.1 102.952 44.2467 100.88 42.7276 99.352C41.2086 97.824 39.1483 96.9656 37 96.9656ZM37 110.645C36.274 110.659 35.5528 110.525 34.8793 110.252C34.2059 109.979 33.5942 109.572 33.0807 109.055C32.5673 108.539 32.1627 107.924 31.8911 107.246C31.6195 106.569 31.4865 105.843 31.5 105.113C31.5 103.646 32.0795 102.239 33.111 101.201C34.1424 100.164 35.5414 99.5809 37 99.5809C37.7223 99.5809 38.4375 99.724 39.1048 100.002C39.7721 100.28 40.3784 100.688 40.8891 101.201C41.3999 101.715 41.805 102.325 42.0814 102.996C42.3578 103.667 42.5 104.387 42.5 105.113C42.5 105.84 42.3578 106.559 42.0814 107.23C41.805 107.901 41.3999 108.511 40.8891 109.025C40.3784 109.539 39.7721 109.946 39.1048 110.224C38.4375 110.502 37.7223 110.645 37 110.645Z" fill="#069E2D"/>
<path d="M118.6 0H89.2C86.9722 0 84.8356 0.89019 83.2603 2.47474C81.685 4.05929 80.8 6.2084 80.8 8.44929V18.7091C80.7754 20.7144 81.4692 22.6615 82.7546 24.1945C84.0399 25.7275 85.8309 26.7439 87.8 27.0578L87.2 39.43L101.4 27.8625L118.6 27.1584C120.828 27.1584 122.964 26.2682 124.54 24.6837C126.115 23.0991 127 20.95 127 18.7091V8.44929C127 6.2084 126.115 4.05929 124.54 2.47474C122.964 0.89019 120.828 0 118.6 0ZM124.4 18.7091C124.4 20.2564 123.789 21.7403 122.701 22.8344C121.614 23.9285 120.138 24.5432 118.6 24.5432L100.4 25.2473L90.2 33.596L90.6 24.5432H89.2C87.6617 24.5432 86.1865 23.9285 85.0988 22.8344C84.0111 21.7403 83.4 20.2564 83.4 18.7091V8.44929C83.4 6.90201 84.0111 5.4181 85.0988 4.324C86.1865 3.22991 87.6617 2.61526 89.2 2.61526H118.6C120.138 2.61526 121.614 3.22991 122.701 4.324C123.789 5.4181 124.4 6.90201 124.4 8.44929V18.7091Z" fill="#069E2D"/>
<path d="M101.2 9.15338V14.0821V18.9103L105.4 16.4962L109.6 14.0821L105.4 11.6681L101.2 9.15338Z" fill="#069E2D"/>
</svg>
