<svg width="120" height="118" viewBox="0 0 120 118" fill="none" xmlns="http://www.w3.org/2000/svg">
<g clip-path="url(#clip0)">
<path d="M22.9827 58.2926C26.4678 58.2926 29.1994 53.8593 29.1994 48.4828C29.1994 43.1063 27.3155 40.2766 24.6782 39.0504C26.1852 18.8649 41.3501 2.82974 59.8116 2.82974C78.2731 2.82974 93.5322 18.7706 94.945 38.956C92.3077 40.0879 90.3297 43.8609 90.3297 48.4828C90.3297 53.1047 93.0612 58.2926 96.5463 58.2926C100.031 58.2926 102.763 53.8593 102.763 48.4828C102.763 43.1063 100.597 39.805 97.7708 38.8617C96.2637 17.1671 79.8744 0 59.8116 0C39.7488 0 23.4537 17.1671 21.9466 38.8617C19.0267 39.6163 16.7661 43.6723 16.7661 48.4828C16.7661 53.2934 19.5918 58.2926 22.9827 58.2926Z" fill="#069E2D"/>
<path d="M110.11 94.9848C103.14 90.9289 96.3579 87.8161 90.8006 85.2694C87.033 83.5715 83.8304 82.1567 82.4176 81.1191C81.423 80.4007 80.5073 79.5786 79.686 78.6667C87.7865 70.7434 90.8948 60.745 86.8446 53.9536C87.1139 52.3964 87.24 50.8177 87.2213 49.2374C87.2235 44.6517 86.0623 40.1405 83.8467 36.1272C81.6312 32.1139 78.4339 28.73 74.5548 26.293C70.6757 23.8559 66.242 22.4456 61.6696 22.1944C57.0972 21.9431 52.536 22.8591 48.4139 24.8565C44.2918 26.8539 40.7439 29.8671 38.1032 33.6135C35.4624 37.36 33.8153 41.7168 33.3163 46.2752C32.8174 50.8337 33.483 55.4443 35.2506 59.6747C37.0183 63.905 39.8301 67.6163 43.4223 70.4604C43.2928 70.7492 43.2421 71.0672 43.2752 71.3819C43.3083 71.6967 43.424 71.9971 43.6107 72.2526C43.7672 72.5123 43.8419 72.8132 43.8251 73.1161C43.8083 73.4189 43.7007 73.7097 43.5165 73.9504C42.0792 76.7691 40.0172 79.2211 37.4882 81.1191C36.0753 82.1567 32.8728 83.5715 29.1052 85.2694C23.6421 87.8161 16.7661 90.9289 9.79591 94.9848C-3.39091 102.908 0.565138 113.378 0.565138 113.472C0.711809 113.829 0.959294 114.135 1.27721 114.353C1.59513 114.571 1.96964 114.691 2.35478 114.699H3.01412C3.47565 114.51 3.84383 114.146 4.03803 113.687C4.23222 113.227 4.23661 112.709 4.05022 112.246C3.95603 111.963 1.31867 104.512 11.7739 98.3805C17.8253 94.8029 24.0844 91.5901 30.518 88.7594L31.8367 91.2118C31.3658 92.8153 30.0471 96.777 28.9168 101.116C27.8017 105.946 28.1293 110.997 29.8587 115.642C30.6122 117.528 33.5322 118 35.887 118C36.9295 118 37.9698 117.905 38.9953 117.717C39.1811 117.631 39.3338 117.486 39.4302 117.305C39.5267 117.124 39.5615 116.917 39.5296 116.714C39.4976 116.512 39.4006 116.325 39.2532 116.182C39.1058 116.04 38.916 115.95 38.7127 115.925C35.6044 116.302 32.0251 116.019 31.6483 114.982C30.0286 110.706 29.701 106.048 30.7064 101.588C31.6483 98.0975 32.6844 94.8905 33.2496 93.004H33.3438L33.8147 92.8153C34.0031 92.8153 34.0973 92.6267 34.1915 92.438C37.2056 94.2302 43.6107 98.2862 45.9655 101.776C48.3202 105.266 49.4505 108.096 48.9796 110.265C48.5086 112.435 45.7771 114.321 45.0235 114.416C44.7737 114.416 44.5341 114.515 44.3575 114.692C44.1809 114.869 44.0816 115.109 44.0816 115.359C44.1028 115.602 44.2089 115.83 44.3812 116.002C44.5534 116.175 44.7809 116.281 45.0235 116.302C46.8132 116.302 50.3925 113.001 50.8634 110.643C51.3344 108.285 50.2983 104.7 47.5667 100.644C44.8352 96.5883 33.9089 90.1743 33.438 89.8913H33.2496L32.3077 88.0048C34.8656 86.9723 37.3246 85.7094 39.6546 84.2318C42.6271 81.9935 45.0711 79.1274 46.8132 75.8369C47.3133 75.013 47.5743 74.0657 47.5667 73.1015C51.4666 75.2294 55.8414 76.3327 60.2826 76.3086C64.5074 76.3154 68.6729 75.313 72.4333 73.3845C72.4427 74.2446 72.6696 75.0883 73.0926 75.8369C73.8369 77.1913 74.6873 78.4845 75.6358 79.7042L73.752 81.1191C72.81 79.6099 70.5494 78.5723 67.9121 78.5723C65.2747 78.5723 61.5071 80.4588 61.5071 82.6283C61.5071 84.7978 64.3328 86.7786 67.9121 86.7786C71.4913 86.7786 73.9403 85.1751 74.2229 83.0999L76.8603 81.1191C77.9024 82.249 79.0366 83.2902 80.2512 84.2318C82.553 85.6746 84.9805 86.9058 87.5039 87.9105C87.5155 89.1979 87.2921 90.4765 86.8446 91.6834L85.5259 94.7962C84.8361 94.5272 84.0995 94.3989 83.3595 94.4189C82.5228 94.4064 81.6921 94.5606 80.9155 94.8726C80.1389 95.1846 79.4321 95.6481 78.836 96.2362C78.24 96.8243 77.7667 97.5252 77.4437 98.2982C77.1207 99.0711 76.9544 99.9007 76.9545 100.739C76.8447 101.64 76.9273 102.554 77.1966 103.421C77.466 104.288 77.9161 105.087 78.5171 105.767C79.1181 106.447 79.8563 106.991 80.6829 107.364C81.5096 107.736 82.4058 107.929 83.3124 107.929C84.219 107.929 85.1152 107.736 85.9418 107.364C86.7685 106.991 87.5067 106.447 88.1077 105.767C88.7087 105.087 89.1588 104.288 89.4281 103.421C89.6975 102.554 89.7801 101.64 89.6703 100.739C89.6705 99.7734 89.4498 98.8209 89.0253 97.9543C88.6008 97.0878 87.9837 96.3301 87.2213 95.7394L88.6342 92.3437C89.0374 91.1861 89.2906 89.9815 89.3877 88.7594C95.8416 91.5765 102.131 94.7572 108.226 98.2862C118.587 104.417 115.95 111.775 115.856 112.152C115.669 112.615 115.674 113.133 115.868 113.592C116.062 114.052 116.43 114.416 116.892 114.604H117.645C118.021 114.604 118.386 114.485 118.69 114.265C118.995 114.045 119.222 113.735 119.341 113.378C119.435 113.378 123.391 102.908 110.11 94.9848ZM36.0753 49.2374C36.0753 44.4429 37.4951 39.7561 40.155 35.7696C42.8149 31.7831 46.5956 28.676 51.0189 26.8413C55.4422 25.0065 60.3094 24.5264 65.0052 25.4618C69.7009 26.3972 74.0142 28.7059 77.3997 32.0961C80.7851 35.4864 83.0906 39.8058 84.0247 44.5081C84.9587 49.2105 84.4793 54.0847 82.6471 58.5142C80.8149 62.9437 77.7122 66.7297 73.7314 69.3934C69.7505 72.0571 65.0703 73.4788 60.2826 73.4788C53.8624 73.4788 47.7052 70.9248 43.1655 66.3787C38.6257 61.8325 36.0753 55.6666 36.0753 49.2374ZM76.3893 73.9504C76.2306 73.6958 76.1465 73.4017 76.1465 73.1015C76.1465 72.8014 76.2306 72.5072 76.3893 72.2526C76.5357 72.033 76.629 71.7823 76.6617 71.5203C76.6944 71.2583 76.6656 70.9923 76.5777 70.7434C81.1595 67.2511 84.5221 62.3981 86.1852 56.8777C88.1633 62.8201 85.1491 70.7434 78.4615 77.2518C77.7077 76.1923 77.0158 75.09 76.3893 73.9504ZM83.3595 105.266C82.1604 105.266 81.0104 104.789 80.1625 103.94C79.3146 103.091 78.8383 101.939 78.8383 100.739C78.9947 99.6621 79.5329 98.6779 80.3545 97.9662C81.1761 97.2545 82.2261 96.8628 83.3124 96.8628C84.3987 96.8628 85.4487 97.2545 86.2703 97.9662C87.0919 98.6779 87.6301 99.6621 87.7865 100.739C87.7867 101.923 87.3234 103.061 86.4957 103.907C85.6681 104.754 84.5422 105.242 83.3595 105.266Z" fill="#069E2D"/>
</g>
<defs>
<clipPath id="clip0">
<rect width="120" height="118" fill="white"/>
</clipPath>
</defs>
</svg>
